# xmcd CD database file
#
# Track frame offsets:
#	150
#	15515
#	27098
#	46175
#	63731
#	86788
#	102475
#	124953
#	135903
#	151917
#	166614
#	175210
#	191312
#	206672
#	223300
#
# Disc length: 3171 seconds
#
# Revision: 0
# Processed by: cddbd v1.4PL0 Copyright (c) Steve Scherf et al.
# Submitted via: CDex 1.50
#
DISCID=c80c610f
DTITLE=BB King - BB King
DYEAR=1996
DGENRE=Blues
TTITLE0=How Blue Can You Get
TTITLE1=Paying The Cost To Be The Boss
TTITLE2=Sweet Sixteen
TTITLE3=That Evil Child
TTITLE4=You've Done Lost Your Good Thing Now
TTITLE5=The Letter
TTITLE6=Everyday I Have The Blues
TTITLE7=Catfish Blues
TTITLE8=My Own Fault
TTITLE9=B.B.'s Boogie
TTITLE10=A New Way Of Driving
TTITLE11=Long Nights
TTITLE12=Walkin' And Cryin'
TTITLE13=The Other Night Blues
TTITLE14=Mr. Pawnbroker
EXTD=YEAR: 1996
EXTT0=
EXTT1=
EXTT2=
EXTT3=
EXTT4=
EXTT5=
EXTT6=
EXTT7=
EXTT8=
EXTT9=
EXTT10=
EXTT11=
EXTT12=
EXTT13=
EXTT14=
PLAYORDER=
